<?xml version="1.0" encoding="UTF-8"?>
<svg id="Layer_2" data-name="Layer 2" xmlns="http://www.w3.org/2000/svg" viewBox="0 0 2607.64 450.7">
  <defs>
    <style>
      .cls-1 {
        fill: #c12229;
      }

      .cls-1, .cls-2 {
        stroke-width: 0px;
      }

      .cls-2 {
        fill: #fff;
      }
    </style>
  </defs>
  <g id="Layer_1-2" data-name="Layer 1">
    <g>
      <path class="cls-1" d="M0,42C0,21.94,16.92,5.64,36.98,5.64h106.56c82.12,0,137.91,58.92,137.91,131.64,0,60.18-37.61,101.55-81.49,112.21l-8.15.63,116.59,139.16c6.9,8.15,8.78,15.67,8.78,24.45,0,20.06-16.3,36.36-36.36,36.36-11.28,0-21.31-4.39-28.83-13.79l-146.68-174.26c-5.01-6.27-11.28-16.3-11.28-28.83,0-18.81,15.04-33.22,33.22-33.22h13.79c37.61,0,63.94-28.21,63.94-62.68s-26.33-63.31-63.94-63.31h-67.07v339.12c0,20.06-16.92,36.98-36.98,36.98S0,433.15,0,413.09V42Z"/>
      <path class="cls-1" d="M366.7,36.98c0-20.69,16.92-36.98,36.98-36.98s36.98,16.3,36.98,36.98v282.08L697.67,12.54c6.27-8.15,16.92-12.54,26.33-12.54,19.43,0,34.48,15.04,34.48,34.48,0,6.9-1.25,14.42-8.15,21.94l-317.18,378.62c-8.78,11.28-19.43,15.04-29.46,15.04-20.06,0-36.98-16.92-36.98-36.98V36.98Z"/>
      <path class="cls-1" d="M804.85,36.98c0-20.69,16.92-36.98,36.98-36.98s36.98,16.3,36.98,36.98v338.5h132.26c18.81,0,33.85,15.04,33.85,34.48s-15.04,34.48-33.85,34.48h-169.25c-20.06,0-36.98-16.92-36.98-36.98V36.98Z"/>
      <path class="cls-1" d="M1100.72,73.97h-83.37c-19.43,0-34.48-15.04-34.48-34.48s15.04-33.85,34.48-33.85h240.71c19.43,0,34.48,15.04,34.48,33.85s-15.04,34.48-34.48,34.48h-83.37v339.12c0,20.06-16.92,36.98-36.98,36.98s-36.98-16.92-36.98-36.98V73.97Z"/>
      <path class="cls-2" d="M1340.18,36.98c0-20.69,16.92-36.98,36.98-36.98s36.98,16.3,36.98,36.98v338.5h132.26c18.81,0,33.85,15.04,33.85,34.48s-15.04,34.48-33.85,34.48h-169.25c-20.06,0-36.98-16.92-36.98-36.98V36.98Z"/>
      <path class="cls-2" d="M1863.6,411.84c-27.58,24.45-63.94,38.86-104.06,38.86-90.27,0-158.59-73.34-158.59-166.11s68.33-166.11,158.59-166.11c40.12,0,76.47,14.42,104.06,39.49v-4.39c0-19.43,15.04-34.48,34.48-34.48s34.48,15.04,34.48,34.48v261.39c0,19.43-15.04,35.1-34.48,35.1s-34.48-15.67-34.48-35.1v-3.13ZM1863.6,284.59v-4.39c-2.51-55.79-43.88-97.79-96.53-97.79s-96.53,43.88-96.53,102.18,42.63,102.18,96.53,102.18,96.53-43.88,96.53-102.18Z"/>
      <path class="cls-2" d="M2081.73,411.84v3.13c0,19.43-15.04,35.1-34.48,35.1s-34.48-15.67-34.48-35.1V34.48c0-19.43,15.04-34.48,34.48-34.48s34.48,15.04,34.48,34.48v123.49c27.58-25.07,63.94-39.49,104.06-39.49,90.27,0,158.59,73.34,158.59,166.11s-68.33,166.11-158.59,166.11c-40.12,0-76.48-14.42-104.06-38.86ZM2274.79,284.59c0-58.3-42.62-102.18-96.53-102.18s-94.65,42-96.53,97.79v4.39c0,58.3,42.63,102.18,96.53,102.18s96.53-43.88,96.53-102.18Z"/>
      <path class="cls-2" d="M2429.61,343.51c10.03,0,18.81,4.39,23.82,12.54,9.4,13.79,22.57,32.6,49.52,32.6,20.69,0,35.73-15.67,35.73-33.85,0-25.7-23.82-35.73-53.28-45.76-39.49-13.79-84-30.72-84-95.28,0-53.28,43.88-95.28,101.55-95.28,53.28,0,102.18,32.6,102.18,72.09,0,17.55-14.42,30.72-31.97,30.72-6.9,0-15.67-2.51-20.06-11.28-10.66-11.91-25.7-30.09-50.15-30.09-21.31,0-35.1,15.67-35.1,33.85,0,25.7,26.33,33.85,58.3,44.51,38.24,11.91,81.49,31.97,81.49,94.65,0,52.66-45.76,97.79-104.68,97.79-55.79,0-104.68-36.36-104.68-75.22,0-17.55,13.79-31.97,31.34-31.97Z"/>
    </g>
  </g>
</svg>